# xmcd
#
# Track frame offsets:
#   150
#   12167
#   25776
#   40595
#   52129
#   69860
#   82037
#   93731
#   105283
#   120191
#   135573
#   151204
#   158805
#   166613
#   179288
#   192364
#   202332
#   213075
#   225072
#
# Disc length: 3118 seconds
#
# Revision: 0
# Processed by: cddbd v1.5.2PL0 Copyright (c) Steve Scherf et al.
# Submitted via: uFREEDB ActiveX Control 1.5
#
DISCID=e20c2c13
DTITLE=BANDA MERCOSUL - AO VIVO EM SANTA CATARINA
DYEAR=1900
DGENRE=Country
TTITLE0=ABERTURA
TTITLE1=DEIXA EU TE AMAR
TTITLE2=A FAVORITA
TTITLE3=O AMOR E ASSIM
TTITLE4=DESCE MAIS UMA
TTITLE5=MEU EX AMOR
TTITLE6=LAPADA NA RACHADA
TTITLE7=GAIA
TTITLE8=JA ME DISSERAM SIM
TTITLE9=TRANSA MAGICA
TTITLE10=AMOR NA FACULDADE
TTITLE11=NAMORO OU AMIZADE
TTITLE12=CULPA DO SEU BEIJO
TTITLE13=VOCE ME TIRA DO AR
TTITLE14=ME LEVA PRA TUA CASA
TTITLE15=COELHINHO
TTITLE16=CARTAO CRED ZONA
TTITLE17=RA, TA, TA
TTITLE18=SEMPRE VOU TE ESPERAR
EXTD=
EXTT0=
EXTT1=
EXTT2=
EXTT3=
EXTT4=
EXTT5=
EXTT6=
EXTT7=
EXTT8=
EXTT9=
EXTT10=
EXTT11=
EXTT12=
EXTT13=
EXTT14=
EXTT15=
EXTT16=
EXTT17=
EXTT18=
PLAYORDER=
